<svg xmlns="http://www.w3.org/2000/svg" xmlns:xlink="http://www.w3.org/1999/xlink" viewBox="0 0 1272.16 675.84"><defs><style>.cls-1{fill:url(#linear-gradient);}.cls-2{fill:url(#linear-gradient-2);}.cls-3{fill:url(#linear-gradient-3);}.cls-4{fill:url(#linear-gradient-4);}.cls-5{fill:url(#linear-gradient-5);}.cls-6{fill:url(#linear-gradient-6);}.cls-7{fill:url(#linear-gradient-7);}.cls-8{fill:url(#linear-gradient-8);}.cls-9{fill:url(#linear-gradient-9);}.cls-10{fill:url(#linear-gradient-10);}.cls-11{fill:url(#linear-gradient-11);}.cls-12{fill:url(#linear-gradient-12);}.cls-13{fill:url(#linear-gradient-13);}.cls-14{fill:url(#linear-gradient-14);}.cls-15{fill:url(#linear-gradient-15);}.cls-16{fill:url(#linear-gradient-16);}.cls-17{fill:url(#linear-gradient-17);}.cls-18{fill:url(#linear-gradient-18);}.cls-19{fill:url(#linear-gradient-19);}.cls-20{fill:url(#linear-gradient-20);}.cls-21{fill:url(#linear-gradient-21);}.cls-22{fill:url(#linear-gradient-22);}.cls-23{fill:url(#linear-gradient-23);}.cls-24{fill:url(#linear-gradient-24);}</style><linearGradient id="linear-gradient" x1="-71.15" y1="178.77" x2="1183.95" y2="178.77" gradientUnits="userSpaceOnUse"><stop offset="0" stop-color="#eb07d9"/><stop offset="1" stop-color="#1253e9"/></linearGradient><linearGradient id="linear-gradient-2" x1="-71.15" y1="203.8" x2="1183.95" y2="203.8" xlink:href="#linear-gradient"/><linearGradient id="linear-gradient-3" x1="-71.15" y1="228.83" x2="1183.95" y2="228.83" xlink:href="#linear-gradient"/><linearGradient id="linear-gradient-4" x1="-71.15" y1="253.53" x2="1183.95" y2="253.53" xlink:href="#linear-gradient"/><linearGradient id="linear-gradient-5" x1="-71.15" y1="277.54" x2="1183.95" y2="277.54" xlink:href="#linear-gradient"/><linearGradient id="linear-gradient-6" x1="-71.15" y1="295.6" x2="1183.95" y2="295.6" xlink:href="#linear-gradient"/><linearGradient id="linear-gradient-7" x1="-71.15" y1="312.33" x2="1183.95" y2="312.33" xlink:href="#linear-gradient"/><linearGradient id="linear-gradient-8" x1="-71.15" y1="221.82" x2="1183.95" y2="221.82" xlink:href="#linear-gradient"/><linearGradient id="linear-gradient-9" x1="-71.15" y1="521.74" x2="1183.95" y2="521.74" xlink:href="#linear-gradient"/><linearGradient id="linear-gradient-10" x1="-71.15" y1="556.41" x2="1183.95" y2="556.41" xlink:href="#linear-gradient"/><linearGradient id="linear-gradient-11" x1="-71.15" y1="581.19" x2="1183.95" y2="581.19" xlink:href="#linear-gradient"/><linearGradient id="linear-gradient-12" x1="-71.15" y1="642.89" x2="1183.95" y2="642.89" xlink:href="#linear-gradient"/><linearGradient id="linear-gradient-13" x1="288.67" y1="245.93" x2="190.74" y2="80.9" xlink:href="#linear-gradient"/><linearGradient id="linear-gradient-14" x1="397.28" y1="273.23" x2="307.77" y2="120.43" xlink:href="#linear-gradient"/><linearGradient id="linear-gradient-15" x1="491.23" y1="263.76" x2="385.6" y2="104.41" xlink:href="#linear-gradient"/><linearGradient id="linear-gradient-16" x1="533.66" y1="231.2" x2="429.92" y2="74.7" xlink:href="#linear-gradient"/><linearGradient id="linear-gradient-17" x1="555.13" y1="235.85" x2="474.18" y2="120.25" xlink:href="#linear-gradient"/><linearGradient id="linear-gradient-18" x1="612.74" y1="265" x2="491.64" y2="92.05" xlink:href="#linear-gradient"/><linearGradient id="linear-gradient-19" x1="432.55" y1="394.42" x2="570.2" y2="394.42" gradientUnits="userSpaceOnUse"><stop offset="0" stop-color="#f43200"/><stop offset="1" stop-color="#fb6f00"/></linearGradient><linearGradient id="linear-gradient-20" x1="61.75" y1="330.32" x2="289.94" y2="330.32" xlink:href="#linear-gradient-19"/><linearGradient id="linear-gradient-21" x1="271.33" y1="366.43" x2="436.24" y2="366.43" xlink:href="#linear-gradient-19"/><linearGradient id="linear-gradient-22" x1="547.38" y1="377.04" x2="767.93" y2="377.04" xlink:href="#linear-gradient-19"/><linearGradient id="linear-gradient-23" x1="754.5" y1="430.99" x2="976.64" y2="430.99" xlink:href="#linear-gradient-19"/><linearGradient id="linear-gradient-24" x1="-71.15" y1="458.8" x2="1183.95" y2="458.8" xlink:href="#linear-gradient"/></defs><g id="Layer_2" data-name="Layer 2"><g id="Layer_1-2" data-name="Layer 1"><path class="cls-1" d="M741.78,184l-27.06,8.62A3.78,3.78,0,0,1,710,190.1l-3.54-11.74a3.9,3.9,0,0,1,2.49-4.87L736,164.87a3.78,3.78,0,0,1,4.75,2.56l3.55,11.74A3.92,3.92,0,0,1,741.78,184Z"/><path class="cls-2" d="M769.59,209.07l-27.06,8.62a3.78,3.78,0,0,1-4.75-2.56l-3.55-11.74a3.92,3.92,0,0,1,2.5-4.87l27.06-8.62a3.78,3.78,0,0,1,4.75,2.56l3.54,11.74A3.91,3.91,0,0,1,769.59,209.07Z"/><path class="cls-3" d="M804.32,234.1l-27.07,8.62a3.77,3.77,0,0,1-4.74-2.56L769,228.42a3.92,3.92,0,0,1,2.5-4.87l27.06-8.62a3.77,3.77,0,0,1,4.74,2.56l3.55,11.74A3.91,3.91,0,0,1,804.32,234.1Z"/><path class="cls-4" d="M834.54,258.81l-27.07,8.62a3.77,3.77,0,0,1-4.74-2.56l-3.55-11.74a3.92,3.92,0,0,1,2.5-4.87l27.06-8.62a3.78,3.78,0,0,1,4.75,2.56L837,253.94A3.91,3.91,0,0,1,834.54,258.81Z"/><path class="cls-5" d="M875.89,282.81l-27.06,8.62a3.77,3.77,0,0,1-4.74-2.56l-3.55-11.74a3.92,3.92,0,0,1,2.49-4.87l27.07-8.62a3.77,3.77,0,0,1,4.74,2.56l3.55,11.74A3.92,3.92,0,0,1,875.89,282.81Z"/><path class="cls-6" d="M916.55,300.87l-27.06,8.62a3.77,3.77,0,0,1-4.74-2.56l-3.55-11.74a3.92,3.92,0,0,1,2.5-4.87l27.06-8.62a3.77,3.77,0,0,1,4.74,2.56L919.05,296A3.92,3.92,0,0,1,916.55,300.87Z"/><path class="cls-7" d="M957.21,317.6l-27.06,8.62a3.77,3.77,0,0,1-4.74-2.56l-3.55-11.74a3.92,3.92,0,0,1,2.5-4.87l27.06-8.62a3.77,3.77,0,0,1,4.74,2.56l3.55,11.74A3.92,3.92,0,0,1,957.21,317.6Z"/><path class="cls-8" d="M963.12,320.51a17.75,17.75,0,0,1-9.22,6.85l-15.63,5a17.42,17.42,0,0,1-5.29.83,18,18,0,0,1-17.08-12.92,18.64,18.64,0,0,1,0-10.72,17.87,17.87,0,0,1-2.62,1.1l-15.63,5A17.37,17.37,0,0,1,884,314.32a18.13,18.13,0,0,1-8.75-10.8,18.63,18.63,0,0,1,.5-12.31,17.71,17.71,0,0,1-3.16,1.36l-15.63,5a17.42,17.42,0,0,1-5.29.83,18,18,0,0,1-17.08-12.91,18.58,18.58,0,0,1,8-21.21l-2.8-1.58a17.71,17.71,0,0,1-8.52,5.89l-15.63,5a17.3,17.3,0,0,1-5.28.82,18,18,0,0,1-17.09-12.91,18.75,18.75,0,0,1,2.41-15.89l-10.26,3.27a17.41,17.41,0,0,1-13.62-1.28,18.15,18.15,0,0,1-8.75-10.8,18.68,18.68,0,0,1,1.26-14,18,18,0,0,1,3.08-4.34c-.36.14-.7.29-1.07.4l-15.63,5A17.37,17.37,0,0,1,737,222.52a18.13,18.13,0,0,1-8.75-10.8,18.65,18.65,0,0,1,1.26-14c.23-.46.5-.9.77-1.34l-7.47,2.38a17.3,17.3,0,0,1-5.28.82A18,18,0,0,1,700,184.81a18.87,18.87,0,0,1,12.9-21.29l1.69-.54,0,0a53.28,53.28,0,0,1-4.72-9.91c-8.78-24.39-14.52-45.57-26.43-55-22.22-17.49-50.7-6.81-51.46,8.51,37.7,1.93,53.85,14.22,51.46,26.51s-19.57,60.17-14.27,70c3.31,6.15,70.51,57.78,164.07,101.06,56.13,26,132.79,61.74,179.91,47C1021.38,338.46,975.83,324.2,963.12,320.51Z"/><path class="cls-9" d="M74.13,402.77c4.19,4.92,70.79,55.91,215.81,71.88S695.86,540.57,837.68,556c187.45,22.12,408.4-5.52,434.43-56.21,1.8,55.29-44.88,113.35-143.61,145.6-83.48-56.21-305.18-68.19-428.15,0-65.92-17.93-104.71-42.2-184.11-48.84-83.84-7-189.29,16.59-253.24,23-10.55-86.62-6.68-193.51-87.15-6.45-43.67,0-64.32-11.06-64.32-11.06s24.24-117.95-.89-126.24-42.19,44.23-88,81.09c-34.11-27.65-21.54-55.29-14.36-63.59s47.77-87.65,48.86-89.84C61.83,394.16,70.74,398.79,74.13,402.77Z"/><path class="cls-10" d="M38.83,568s26.36,18.89,58.34,29.49C108.84,502.6,116,486,38.83,568Z"/><path class="cls-11" d="M192.32,616.86c21.67-64.06,38.59-136.38,61,4.61C213,624.23,192.32,616.86,192.32,616.86Z"/><path class="cls-12" d="M732.66,650c136.44,58.05,368.91,0,368.91,0C1025.28,598.43,842.17,594.75,732.66,650Z"/><path class="cls-13" d="M236.75,22.05c-5.3-4-10.32-12.54-16.6-15.78A3.77,3.77,0,0,0,219.69,5C190-22.07,151.62,67.71,138.46,111.89c-5.39,19.35-9.87,54.37-9.87,54.37s-2.7,13.82,2.24,17.51S252.45,240,256.94,228.92s6.28-36.86,0-52.52-75.4-22.12-80.78-26.73-3.59-30.41,2.69-26.72,38.6,24.88,47.57,14.74,17.06-24.88,11.67-33.17-44.88-1.38-44-13.82S203.54,70,208.92,71.81s34.56,7.83,45.33,17.51S290.6,67.2,291.5,49.23,243.48,27.12,236.75,22.05Z"/><path class="cls-14" d="M295.54,85.78c-13.17-1.22-10.77,9.22-12,15.36s1.2,122.87-20.35,134.54c-3.59,6.14,37.11,8.6,58,16.58s10.17-16,4.79-28.25-20.35-78-16.16-89.7,43.68,69.42,46.08,88.47-8.38,27,0,33.78,19.74,13.52,31.71,16-1.2-63.89,0-76.79-4.24-72.49,5.06-84.16,20.67-14.75,6.31-22.12S345.8,73.91,345.8,85.68,369.74,189,367.35,201.89c-19.15-19-43.69-95.22-45.48-103.82S295.54,85.78,295.54,85.78Z"/><path class="cls-15" d="M462.48,89.65c-8.55-4-34.74,10.41-47.27,11-9.11,2.34-5.7,9.35-4,14s11.59,55,14.44,78.93,10,53.78-3.05,57.29-8.19-28.64-16.73-20.45S400.69,263,413.79,277s49.83,4.89,48.69-15S471,93.63,462.48,89.65Z"/><path class="cls-16" d="M395,61.59c-4.92,3.73-.57,3,6.7,13.09s6.38,17.57,14.3,18.69,27.88-9.12,34.11-9.25,10.33-3.42,7.08-9.76-6.74-6-7.77-15.16S412.37,55.46,395,61.59Z"/><path class="cls-17" d="M533.76,107.75c-33.21-3.69-51.16,1.51-56.55,13.65s-8.52,98.13-4.93,112.73,38.59,20.13,52.51,21.51,32.76-67.73,34.55-85.23S570.56,110.05,533.76,107.75ZM532,153.82c-.9,6.45-13.48,60.36-15.73,65s-6.71,3.69-14.79,1.39-6.28-48.38-4-64.51,4.49-14.74,18.83-16.12C536.42,143.22,532.86,147.37,532,153.82Z"/><path class="cls-18" d="M485.23,96.53c44.28-.61,85.57,2.81,85,21.53,5.39,14.75-9.36,74.72-8.46,91,0,9.22,23.42,7.78,28.21,13s-36.29,40.7-45.18,44.94S484.63,256,475.06,252.88s-2.4,22.85,10.17,31.7,72.1,24.51,87.66,7.92S639,228.61,639,220.63s29.91-82.63,22.73-90-47.57-16-52.36-5.53,8.08,81.7-.29,77.4-18.55-2.45-19.15-11.67,14.06-89.89,3.29-97.38C585.16,75.34,485.23,96.53,485.23,96.53Z"/><path class="cls-19" d="M530.72,301c-46.87-3.68-72.21,1.52-79.81,13.66S428.52,459.43,433.59,474s64.26,13.61,83.9,15,46.79-107.89,49.33-125.4S582.65,303.27,530.72,301Zm-5,58.41c-1.27,6.45-16.38,68.28-19.55,72.89s-10.41,12-21.81,9.68-8.11-76.93-4.95-93.06c2.79-14.21,5.58-14.83,20-15.72a43.92,43.92,0,0,1,14.25,1.47C526.66,338.19,526.79,353.87,525.72,359.37Z"/><path class="cls-20" d="M280.28,255.66c-12.44-3.77-92.82-36.9-131.86-48.53-23.68-7.78-32.25,3.45-36.13,18.14-8.6,23-12.46,57.17-4.35,69.08,12.57,18.42,73.6,34.09,73.6,51.6s-5.82,12-12.33,23-64.86-28.56-81.91-38.7S59.47,367.14,62.17,381s162.46,94,189.39,71S278,386.49,263,361.61s-94.92-44.23-99.41-66.34-5.38-25.8-1.79-29.49,79.88,14.56,82.58,18.8S231,321.33,247.07,322c14.36-1.84,33.21,8.29,37.7-12S295.54,260.29,280.28,255.66Z"/><path class="cls-21" d="M431.27,295.94c-11.37-13.28-54.35-16-63.33-15.42S356.57,294,355.38,292.81s-1.8-7.37-3.59-15.36c-1.61-7.14-25.23-13.43-40.91-14.68a8.75,8.75,0,0,0-8.7,5.31C292,291.55,292.47,366.85,286,393.56c-3.59,33.17-26.31,60.27-6.86,64.4s46.36,14.23,58.92,11.77c11.37-25.8-3.58-60.81,4.19-86,1.2-6.14,21.54,9.83,40.69,11.67s43.58-18,46-29S442.64,309.23,431.27,295.94Zm-54.83,70.49c-5.52-1.94-29.44-4.2-29.44-11.57s2.39-34.41,6-45.46c0,0,36.4,0,36.39,14.13C389,328.44,382,368.37,376.44,366.43Z"/><path class="cls-22" d="M670.73,394.42c7.18-6.82,64.63,5.89,72.7-6.69s26.93-58.37,24.24-72.19c-2.56-13.13-45.63-44-84.82-49.15a30.83,30.83,0,0,0,1-10.73c-1.79-18.14-30.48-33.42-32.87-30.87s-8.68,12.59-8.68,12.59c-13.16,16.87-54.05,51.72-63.16,66.79,2.69,5.23,4.62,55.6-1.88,78.94S540.88,484.38,548.66,489s68.21,18.79,85,18.79-14.36-63.62-14.36-85.25c0-7.37,3.33-22.13,8.08-38.73,14,25.72,48.85,112.79,56.66,124,8.79,12.59,44.17,16.89,64.81,21.5s14.36-56.21,6.28-73.27S663.55,401.24,670.73,394.42Zm-24-59.24c1.2-5.23,7.78-27.93,16.16-31,0,0,41,2.78,40.36,9.54s-6.89,44.42-15.8,44.42S645.51,340.42,646.71,335.18Z"/><path class="cls-23" d="M796.44,320.35c51.48,16.43,137.78,44.54,171.09,51.71,23.34,2.45-5.38,51-6.58,61.43s-41.29-21.5-53.86-19.66-27.82,51.14-21.84,70.8,18.4,42.85,6.14,55.75c-6.59,4.3-96.34,1.23-105.32-4.91-27.62-10.81,15.6-46.44,28.72-63.28,14.36-16.14,40-55.75,33.06-72.49-5.38-8.6-85.57,3.69-93.35-2.46,5.57-9.39,16.31-46.05,21.55-65.49A16.09,16.09,0,0,1,796.44,320.35Z"/><path class="cls-24" d="M1037.4,366.43C1023.22,385.59,994.86,377,994.86,377a396,396,0,0,1-7.64,57.79c-7.28,29.71-24.27,33.57-42,30.84S913,471.45,917.12,489c5.65,27,5.06,49.44-8.53,56.22,63.81,18.49,340.07-8,352.18-56.22C1250.73,420.17,1135.6,430.54,1037.4,366.43Z"/></g></g></svg>